<svg width="55" height="55" viewBox="0 0 55 55" fill="none" xmlns="http://www.w3.org/2000/svg">
<path fill-rule="evenodd" clip-rule="evenodd" d="M4.03829 0C1.80869 0 0 1.75362 0 3.91407V50.7279C0 52.8886 1.80891 54.6407 4.03829 54.6407H50.6024C52.8328 54.6407 54.6407 52.8883 54.6407 50.7273V3.91407C54.6407 1.75362 52.8328 0 50.6024 0H4.03829ZM16.6043 21.1278V45.7272H8.42787V21.1278H16.6043ZM17.1433 13.5201C17.1433 15.8808 15.3685 17.7697 12.5178 17.7697L12.4642 17.7695C9.72004 17.7695 7.94592 15.8806 7.94592 13.5199C7.94592 11.1057 9.77361 9.26947 12.572 9.26947C15.3685 9.26947 17.0899 11.1057 17.1433 13.5201ZM29.3059 45.7272H21.1301C21.1301 45.7272 21.2373 23.4363 21.1306 21.1286H29.3066V24.6106C30.3935 22.9348 32.3387 20.5511 36.6756 20.5511C42.0549 20.5511 46.0881 24.0671 46.0881 31.6226V45.7272H37.9125V32.5686C37.9125 29.2613 36.7285 27.0057 33.7707 27.0057C31.5114 27.0057 30.1661 28.5269 29.5753 29.9964C29.3593 30.5209 29.3059 31.257 29.3059 31.9912V45.7272Z" fill="#006699"/>
</svg>
